ffmpeg started on 2016-12-02 at 20:16:42
Report written to "Output/x264/results/ffmpeg/old_town_cross_2160p50veryslow10000k.log"
Command line:
Tools/ffmpeg/ffmpeg -benchmark -y -i Input/y4m/old_town_cross_2160p50.y4m -c:v libx264 -preset veryslow -b:v 10000k -an Output/x264/encoded/old_town_cross_2160p50veryslow10000k.mkv
ffmpeg version N-82227-gdb23fde Copyright (c) 2000-2016 the FFmpeg developers
  built with gcc 5.4.0 (Ubuntu 5.4.0-6ubuntu1~16.04.2) 20160609
  configuration: --prefix=/home/jaroslav/ffmpeg_build --pkg-config-flags=--static --extra-cflags=-I/home/jaroslav/ffmpeg_build/include --extra-ldflags=-L/home/jaroslav/ffmpeg_build/lib --bindir=/home/jaroslav/bin --enable-gpl --enable-libass --enable-libfdk-aac --enable-libfreetype --enable-libmp3lame --enable-libopus --enable-libtheora --enable-libvorbis --enable-libvpx --enable-libx264 --enable-libx265 --enable-nvenc --enable-libmfx --enable-libxvid --enable-libgsm --enable-libopencore-amrnb --enable-version3 --enable-nonfree
  libavutil      55. 35.100 / 55. 35.100
  libavcodec     57. 66.101 / 57. 66.101
  libavformat    57. 57.100 / 57. 57.100
  libavdevice    57.  2.100 / 57.  2.100
  libavfilter     6. 66.100 /  6. 66.100
  libswscale      4.  3.100 /  4.  3.100
  libswresample   2.  4.100 /  2.  4.100
  libpostproc    54.  2.100 / 54.  2.100
Input #0, yuv4mpegpipe, from 'Input/y4m/old_town_cross_2160p50.y4m':
  Duration: 00:00:10.00, start: 0.000000, bitrate: 4976642 kb/s
    Stream #0:0: Video: rawvideo (I420 / 0x30323449), yuv420p(progressive), 3840x2160, SAR 1:1 DAR 16:9, 50 fps, 50 tbr, 50 tbn, 50 tbc
[libx264 @ 0x41d6120] using SAR=1/1
[libx264 @ 0x41d6120] DPB size (16 frames, 518400 mbs) > level limit (5 frames, 184320 mbs)
[libx264 @ 0x41d6120] using cpu capabilities: MMX2 SSE2Fast SSSE3 SSE4.2 AVX FMA3 AVX2 LZCNT BMI2
[libx264 @ 0x41d6120] profile High, level 5.2
[libx264 @ 0x41d6120] 264 - core 148 - H.264/MPEG-4 AVC codec - Copyleft 2003-2016 - http://www.videolan.org/x264.html - options: cabac=1 ref=16 deblock=1:0:0 analyse=0x3:0x133 me=umh subme=10 psy=1 psy_rd=1.00:0.00 mixed_ref=1 me_range=24 chroma_me=1 trellis=2 8x8dct=1 cqm=0 deadzone=21,11 fast_pskip=1 chroma_qp_offset=-2 threads=6 lookahead_threads=1 sliced_threads=0 nr=0 decimate=1 interlaced=0 bluray_compat=0 constrained_intra=0 bframes=8 b_pyramid=2 b_adapt=2 b_bias=0 direct=3 weightb=1 open_gop=0 weightp=2 keyint=250 keyint_min=25 scenecut=40 intra_refresh=0 rc_lookahead=60 rc=abr mbtree=1 bitrate=10000 ratetol=1.0 qcomp=0.60 qpmin=0 qpmax=69 qpstep=4 ip_ratio=1.40 aq=1:1.00
Output #0, matroska, to 'Output/x264/encoded/old_town_cross_2160p50veryslow10000k.mkv':
  Metadata:
    encoder         : Lavf57.57.100
    Stream #0:0: Video: h264 (libx264) (H264 / 0x34363248), yuv420p, 3840x2160 [SAR 1:1 DAR 16:9], q=-1--1, 10000 kb/s, 50 fps, 1k tbn, 50 tbc
    Metadata:
      encoder         : Lavc57.66.101 libx264
    Side data:
      cpb: bitrate max/min/avg: 0/0/10000000 buffer size: 0 vbv_delay: -1
Stream mapping:
  Stream #0:0 -> #0:0 (rawvideo (native) -> h264 (libx264))
Press [q] to stop, [?] for help
frame=   60 fps=0.0 q=0.0 size=       0kB time=00:00:00.00 bitrate=N/A speed=   0x    frame=   72 fps=8.0 q=0.0 size=       0kB time=00:00:00.00 bitrate=N/A speed=   0x    frame=   77 fps=6.9 q=34.0 size=       1kB time=-00:00:00.01 bitrate=N/A speed=N/A    frame=   78 fps=6.5 q=34.0 size=       1kB time=00:00:00.00 bitrate=5888.0kbits/s speed=8.31e-05x    frame=   82 fps=6.5 q=37.0 size=       1kB time=00:00:00.08 bitrate=  72.7kbits/s speed=0.00644x    frame=   84 fps=6.1 q=35.0 size=       1kB time=00:00:00.12 bitrate=  48.7kbits/s speed=0.00874x    frame=   89 fps=6.2 q=41.0 size=       1kB time=00:00:00.22 bitrate=  26.6kbits/s speed=0.0154x    frame=   90 fps=5.8 q=43.0 size=       1kB time=00:00:00.24 bitrate=  24.4kbits/s speed=0.0155x    frame=   96 fps=5.9 q=43.0 size=       1kB time=00:00:00.36 bitrate=  16.3kbits/s speed=0.022x    frame=   97 fps=5.7 q=43.0 size=       1kB time=00:00:00.38 bitrate=  15.5kbits/s speed=0.0224x    frame=  100 fps=5.4 q=41.0 size=       1kB time=00:00:00.44 bitrate=  13.4kbits/s speed=0.0239x    frame=  105 fps=5.3 q=41.0 size=       1kB time=00:00:00.54 bitrate=  10.9kbits/s speed=0.0274x    frame=  107 fps=5.2 q=38.0 size=       1kB time=00:00:00.58 bitrate=  10.1kbits/s speed=0.0285x    frame=  108 fps=5.1 q=39.0 size=       1kB time=00:00:00.60 bitrate=   9.8kbits/s speed=0.0285x    frame=  113 fps=4.9 q=39.0 size=       1kB time=00:00:00.70 bitrate=   8.4kbits/s speed=0.0304x    frame=  115 fps=4.8 q=38.0 size=       1kB time=00:00:00.74 bitrate=   7.9kbits/s speed=0.0312x    frame=  119 fps=4.7 q=38.0 size=       1kB time=00:00:00.82 bitrate=   7.2kbits/s speed=0.0326x    frame=  121 fps=4.7 q=38.0 size=       1kB time=00:00:00.86 bitrate=   6.8kbits/s speed=0.0335x    frame=  122 fps=4.5 q=37.0 size=       1kB time=00:00:00.88 bitrate=   6.7kbits/s speed=0.0322x    frame=  124 fps=4.5 q=37.0 size=       1kB time=00:00:00.92 bitrate=   6.4kbits/s speed=0.0331x    frame=  127 fps=4.5 q=37.0 size=       1kB time=00:00:00.98 bitrate=   6.0kbits/s speed=0.0346x    frame=  128 fps=4.3 q=37.0 size=       1kB time=00:00:01.00 bitrate=   5.9kbits/s speed=0.0333x    frame=  130 fps=4.2 q=36.0 size=       1kB time=00:00:01.04 bitrate=   5.7kbits/s speed=0.0337x    frame=  132 fps=4.1 q=36.0 size=       1kB time=00:00:01.08 bitrate=   5.4kbits/s speed=0.0334x    frame=  134 fps=4.1 q=36.0 size=       1kB time=00:00:01.12 bitrate=   5.3kbits/s speed=0.034x    frame=  136 fps=4.0 q=36.0 size=       1kB time=00:00:01.16 bitrate=   5.1kbits/s speed=0.0343x    frame=  138 fps=3.9 q=36.0 size=       1kB time=00:00:01.20 bitrate=   4.9kbits/s speed=0.0336x    frame=  139 fps=3.8 q=36.0 size=       1kB time=00:00:01.22 bitrate=   4.8kbits/s speed=0.0333x    frame=  141 fps=3.8 q=36.0 size=       1kB time=00:00:01.26 bitrate=   4.7kbits/s speed=0.0338x    frame=  144 fps=3.8 q=36.0 size=       1kB time=00:00:01.32 bitrate=   4.5kbits/s speed=0.0347x    frame=  145 fps=3.6 q=36.0 size=       1kB time=00:00:01.34 bitrate=   4.4kbits/s speed=0.0336x    frame=  147 fps=3.6 q=35.0 size=       1kB time=00:00:01.38 bitrate=   4.3kbits/s speed=0.034x    frame=  148 fps=3.6 q=35.0 size=       1kB time=00:00:01.40 bitrate=   4.2kbits/s speed=0.0337x    frame=  150 fps=3.5 q=35.0 size=       1kB time=00:00:01.44 bitrate=   4.1kbits/s speed=0.0339x    frame=  152 fps=3.5 q=35.0 size=       1kB time=00:00:01.48 bitrate=   4.0kbits/s speed=0.0342x    frame=  154 fps=3.4 q=35.0 size=       1kB time=00:00:01.52 bitrate=   3.9kbits/s speed=0.034x    frame=  155 fps=3.4 q=35.0 size=       1kB time=00:00:01.54 bitrate=   3.8kbits/s speed=0.0338x    frame=  157 fps=3.4 q=35.0 size=       1kB time=00:00:01.58 bitrate=   3.7kbits/s speed=0.0339x    frame=  158 fps=3.3 q=35.0 size=       1kB time=00:00:01.60 bitrate=   3.7kbits/s speed=0.0337x    frame=  161 fps=3.3 q=35.0 size=       1kB time=00:00:01.66 bitrate=   3.5kbits/s speed=0.0342x    frame=  163 fps=3.3 q=35.0 size=       1kB time=00:00:01.70 bitrate=   3.5kbits/s speed=0.034x    frame=  164 fps=3.2 q=35.0 size=       1kB time=00:00:01.72 bitrate=   3.4kbits/s speed=0.0335x    frame=  166 fps=3.2 q=35.0 size=       1kB time=00:00:01.76 bitrate=   3.3kbits/s speed=0.0337x    frame=  167 fps=3.2 q=35.0 size=       1kB time=00:00:01.78 bitrate=   3.3kbits/s speed=0.0337x    frame=  170 fps=3.1 q=35.0 size=       1kB time=00:00:01.84 bitrate=   3.2kbits/s speed=0.0338x    frame=  172 fps=3.1 q=35.0 size=       1kB time=00:00:01.88 bitrate=   3.1kbits/s speed=0.0341x    frame=  173 fps=3.1 q=35.0 size=       1kB time=00:00:01.90 bitrate=   3.1kbits/s speed=0.0339x    frame=  175 fps=3.0 q=34.0 size=       1kB time=00:00:01.94 bitrate=   3.0kbits/s speed=0.0337x    frame=  176 fps=3.0 q=34.0 size=       1kB time=00:00:01.96 bitrate=   3.0kbits/s speed=0.0336x    frame=  180 fps=3.0 q=34.0 size=       1kB time=00:00:02.04 bitrate=   2.9kbits/s speed=0.0344x    frame=  181 fps=3.0 q=34.0 size=       1kB time=00:00:02.06 bitrate=   2.9kbits/s speed=0.0341x    frame=  182 fps=2.9 q=34.0 size=       1kB time=00:00:02.08 bitrate=   2.8kbits/s speed=0.0337x    frame=  184 fps=2.9 q=34.0 size=       1kB time=00:00:02.12 bitrate=   2.8kbits/s speed=0.0335x    frame=  185 fps=2.9 q=34.0 size=       1kB time=00:00:02.14 bitrate=   2.8kbits/s speed=0.0335x    frame=  188 fps=2.9 q=34.0 size=       1kB time=00:00:02.20 bitrate=   2.7kbits/s speed=0.0341x    frame=  190 fps=2.9 q=34.0 size=       1kB time=00:00:02.24 bitrate=   2.6kbits/s speed=0.0337x    frame=  192 fps=2.8 q=34.0 size=       1kB time=00:00:02.28 bitrate=   2.6kbits/s speed=0.0336x    frame=  193 fps=2.8 q=34.0 size=       1kB time=00:00:02.30 bitrate=   2.6kbits/s speed=0.0334x    frame=  195 fps=2.8 q=34.0 size=       1kB time=00:00:02.34 bitrate=   2.5kbits/s speed=0.0335x    frame=  197 fps=2.8 q=34.0 size=       1kB time=00:00:02.38 bitrate=   2.5kbits/s speed=0.0337x    frame=  199 fps=2.8 q=34.0 size=       1kB time=00:00:02.42 bitrate=   2.4kbits/s speed=0.0335x    frame=  200 fps=2.7 q=34.0 size=       1kB time=00:00:02.44 bitrate=   2.4kbits/s speed=0.0335x    frame=  202 fps=2.7 q=34.0 size=       1kB time=00:00:02.48 bitrate=   2.4kbits/s speed=0.0335x    frame=  204 fps=2.7 q=34.0 size=       1kB time=00:00:02.52 bitrate=   2.3kbits/s speed=0.0335x    frame=  206 fps=2.7 q=34.0 size=       1kB time=00:00:02.56 bitrate=   2.3kbits/s speed=0.0336x    frame=  208 fps=2.7 q=34.0 size=       1kB time=00:00:02.60 bitrate=   2.3kbits/s speed=0.0335x    frame=  209 fps=2.6 q=34.0 size=       1kB time=00:00:02.62 bitrate=   2.2kbits/s speed=0.0331x    frame=  210 fps=2.6 q=34.0 size=       1kB time=00:00:02.64 bitrate=   2.2kbits/s speed=0.0331x    frame=  215 fps=2.6 q=34.0 size=       1kB time=00:00:02.74 bitrate=   2.1kbits/s speed=0.033x    frame=  218 fps=2.6 q=34.0 size=       1kB time=00:00:02.80 bitrate=   2.1kbits/s speed=0.0331x    frame=  219 fps=2.6 q=34.0 size=       1kB time=00:00:02.82 bitrate=   2.1kbits/s speed=0.0331x    frame=  221 fps=2.6 q=34.0 size=       1kB time=00:00:02.86 bitrate=   2.1kbits/s speed=0.0332x    frame=  224 fps=2.5 q=34.0 size=       1kB time=00:00:02.92 bitrate=   2.0kbits/s speed=0.0332x    frame=  225 fps=2.5 q=34.0 size=       1kB time=00:00:02.94 bitrate=   2.0kbits/s speed=0.033x    frame=  228 fps=2.5 q=34.0 size=       1kB time=00:00:03.00 bitrate=   2.0kbits/s speed=0.0331x    frame=  229 fps=2.5 q=34.0 size=       1kB time=00:00:03.02 bitrate=   1.9kbits/s speed=0.0332x    frame=  231 fps=2.5 q=34.0 size=       1kB time=00:00:03.06 bitrate=   1.9kbits/s speed=0.0334x    frame=  232 fps=2.5 q=34.0 size=       1kB time=00:00:03.08 bitrate=   1.9kbits/s speed=0.0334x    frame=  233 fps=2.5 q=34.0 size=       1kB time=00:00:03.10 bitrate=   1.9kbits/s speed=0.033x    frame=  234 fps=2.5 q=34.0 size=       1kB time=00:00:03.12 bitrate=   1.9kbits/s speed=0.033x    frame=  238 fps=2.5 q=34.0 size=       1kB time=00:00:03.20 bitrate=   1.8kbits/s speed=0.0334x    frame=  239 fps=2.4 q=34.0 size=       1kB time=00:00:03.22 bitrate=   1.8kbits/s speed=0.033x    frame=  240 fps=2.4 q=34.0 size=       1kB time=00:00:03.24 bitrate=   1.8kbits/s speed=0.033x    frame=  245 fps=2.4 q=34.0 size=       1kB time=00:00:03.34 bitrate=   1.8kbits/s speed=0.0334x    frame=  247 fps=2.4 q=34.0 size=       1kB time=00:00:03.38 bitrate=   1.7kbits/s speed=0.033x    frame=  249 fps=2.4 q=34.0 size=       1kB time=00:00:03.42 bitrate=   1.7kbits/s speed=0.0331x    frame=  251 fps=2.4 q=34.0 size=       1kB time=00:00:03.46 bitrate=   1.7kbits/s speed=0.0332x    frame=  253 fps=2.4 q=34.0 size=       1kB time=00:00:03.50 bitrate=   1.7kbits/s speed=0.0332x    frame=  257 fps=2.4 q=34.0 size=       1kB time=00:00:03.58 bitrate=   1.6kbits/s speed=0.0336x    frame=  258 fps=2.4 q=34.0 size=       1kB time=00:00:03.60 bitrate=   1.6kbits/s speed=0.0335x    frame=  259 fps=2.4 q=34.0 size=       1kB time=00:00:03.62 bitrate=   1.6kbits/s speed=0.0334x    frame=  260 fps=2.4 q=34.0 size=       1kB time=00:00:03.64 bitrate=   1.6kbits/s speed=0.0331x    frame=  262 fps=2.4 q=34.0 size=       1kB time=00:00:03.68 bitrate=   1.6kbits/s speed=0.0332x    frame=  266 fps=2.4 q=34.0 size=       1kB time=00:00:03.76 bitrate=   1.6kbits/s speed=0.0333x    frame=  267 fps=2.3 q=34.0 size=       1kB time=00:00:03.78 bitrate=   1.6kbits/s speed=0.0332x    frame=  269 fps=2.3 q=34.0 size=       1kB time=00:00:03.82 bitrate=   1.5kbits/s speed=0.0331x    frame=  271 fps=2.3 q=34.0 size=       1kB time=00:00:03.86 bitrate=   1.5kbits/s speed=0.0333x    frame=  274 fps=2.3 q=34.0 size=       1kB time=00:00:03.92 bitrate=   1.5kbits/s speed=0.0336x    frame=  275 fps=2.3 q=34.0 size=       1kB time=00:00:03.94 bitrate=   1.5kbits/s speed=0.0331x    frame=  277 fps=2.3 q=34.0 size=       1kB time=00:00:03.98 bitrate=   1.5kbits/s speed=0.0333x    frame=  278 fps=2.3 q=34.0 size=       1kB time=00:00:04.00 bitrate=   1.5kbits/s speed=0.0332x    frame=  279 fps=2.3 q=34.0 size=       1kB time=00:00:04.02 bitrate=   1.5kbits/s speed=0.0331x    frame=  283 fps=2.3 q=34.0 size=       1kB time=00:00:04.10 bitrate=   1.4kbits/s speed=0.0336x    frame=  284 fps=2.3 q=34.0 size=       1kB time=00:00:04.12 bitrate=   1.4kbits/s speed=0.0334x    frame=  285 fps=2.3 q=34.0 size=       1kB time=00:00:04.14 bitrate=   1.4kbits/s speed=0.0332x    frame=  287 fps=2.3 q=34.0 size=       1kB time=00:00:04.18 bitrate=   1.4kbits/s speed=0.0332x    frame=  289 fps=2.3 q=33.0 size=       1kB time=00:00:04.22 bitrate=   1.4kbits/s speed=0.0333x    frame=  291 fps=2.3 q=33.0 size=       1kB time=00:00:04.26 bitrate=   1.4kbits/s speed=0.0332x    frame=  293 fps=2.3 q=33.0 size=       1kB time=00:00:04.30 bitrate=   1.4kbits/s speed=0.0334x    frame=  295 fps=2.3 q=33.0 size=       1kB time=00:00:04.34 bitrate=   1.4kbits/s speed=0.0332x    frame=  296 fps=2.3 q=33.0 size=       1kB time=00:00:04.36 bitrate=   1.4kbits/s speed=0.0332x    frame=  297 fps=2.3 q=33.0 size=       1kB time=00:00:04.38 bitrate=   1.3kbits/s speed=0.0332x    frame=  301 fps=2.3 q=33.0 size=       1kB time=00:00:04.46 bitrate=   1.3kbits/s speed=0.0334x    frame=  302 fps=2.3 q=33.0 size=       1kB time=00:00:04.48 bitrate=   1.3kbits/s speed=0.0334x    frame=  303 fps=2.2 q=33.0 size=    5150kB time=00:00:04.50 bitrate=9373.2kbits/s speed=0.0331x    frame=  305 fps=2.2 q=33.0 size=    5150kB time=00:00:04.54 bitrate=9290.6kbits/s speed=0.0332x    frame=  309 fps=2.2 q=33.0 size=    5150kB time=00:00:04.62 bitrate=9129.8kbits/s speed=0.0332x    frame=  310 fps=2.2 q=33.0 size=    5150kB time=00:00:04.64 bitrate=9090.4kbits/s speed=0.0332x    frame=  311 fps=2.2 q=33.0 size=    5150kB time=00:00:04.66 bitrate=9051.4kbits/s speed=0.0332x    frame=  313 fps=2.2 q=33.0 size=    5150kB time=00:00:04.70 bitrate=8974.4kbits/s speed=0.0328x    frame=  318 fps=2.2 q=33.0 size=    5150kB time=00:00:04.80 bitrate=8787.5kbits/s speed=0.0328x    frame=  320 fps=2.2 q=31.0 size=    5150kB time=00:00:04.84 bitrate=8714.9kbits/s speed=0.0329x    frame=  324 fps=2.2 q=34.0 size=    5150kB time=00:00:04.92 bitrate=8573.2kbits/s speed=0.033x    frame=  326 fps=2.2 q=34.0 size=    5584kB time=00:00:04.96 bitrate=9220.2kbits/s speed=0.033x    frame=  329 fps=2.2 q=34.0 size=    5584kB time=00:00:05.02 bitrate=9110.0kbits/s speed=0.0333x    frame=  333 fps=2.2 q=34.0 size=    5584kB time=00:00:05.10 bitrate=8967.2kbits/s speed=0.0336x    frame=  334 fps=2.2 q=34.0 size=    5584kB time=00:00:05.12 bitrate=8932.1kbits/s speed=0.0336x    frame=  336 fps=2.2 q=35.0 size=    5584kB time=00:00:05.16 bitrate=8862.9kbits/s speed=0.0336x    frame=  342 fps=2.2 q=35.0 size=    5584kB time=00:00:05.28 bitrate=8661.5kbits/s speed=0.034x    frame=  344 fps=2.2 q=35.0 size=    5584kB time=00:00:05.32 bitrate=8596.4kbits/s speed=0.0341x    frame=  345 fps=2.2 q=35.0 size=    5584kB time=00:00:05.34 bitrate=8564.2kbits/s speed=0.034x    frame=  351 fps=2.2 q=35.0 size=    5584kB time=00:00:05.46 bitrate=8376.0kbits/s speed=0.0342x    frame=  354 fps=2.2 q=35.0 size=    5584kB time=00:00:05.52 bitrate=8285.0kbits/s speed=0.0343x    frame=  356 fps=2.2 q=35.0 size=    5584kB time=00:00:05.56 bitrate=8225.4kbits/s speed=0.0345x    frame=  357 fps=2.2 q=35.0 size=    5584kB time=00:00:05.58 bitrate=8195.9kbits/s speed=0.0345x    frame=  360 fps=2.2 q=35.0 size=    5584kB time=00:00:05.64 bitrate=8108.8kbits/s speed=0.0346x    frame=  363 fps=2.2 q=35.0 size=    5584kB time=00:00:05.70 bitrate=8023.4kbits/s speed=0.0344x    frame=  365 fps=2.2 q=35.0 size=    5584kB time=00:00:05.74 bitrate=7967.5kbits/s speed=0.0345x    frame=  369 fps=2.2 q=35.0 size=    5584kB time=00:00:05.82 bitrate=7858.0kbits/s speed=0.0346x    frame=  371 fps=2.2 q=35.0 size=    5584kB time=00:00:05.86 bitrate=7804.4kbits/s speed=0.0347x    frame=  372 fps=2.2 q=35.0 size=    5584kB time=00:00:05.88 bitrate=7777.8kbits/s speed=0.0347x    frame=  374 fps=2.2 q=35.0 size=    5584kB time=00:00:05.92 bitrate=7725.3kbits/s speed=0.0347x    frame=  375 fps=2.2 q=35.0 size=    5584kB time=00:00:05.94 bitrate=7699.3kbits/s speed=0.0346x    frame=  377 fps=2.2 q=35.0 size=    5584kB time=00:00:05.98 bitrate=7647.8kbits/s speed=0.0344x    frame=  379 fps=2.2 q=35.0 size=    5584kB time=00:00:06.02 bitrate=7597.0kbits/s speed=0.0345x    frame=  383 fps=2.2 q=35.0 size=    5584kB time=00:00:06.10 bitrate=7497.4kbits/s speed=0.0345x    frame=  385 fps=2.2 q=34.0 size=    5584kB time=00:00:06.14 bitrate=7448.5kbits/s speed=0.0346x    frame=  387 fps=2.2 q=35.0 size=    5584kB time=00:00:06.18 bitrate=7400.3kbits/s speed=0.0346x    frame=  389 fps=2.2 q=35.0 size=    5584kB time=00:00:06.22 bitrate=7352.8kbits/s speed=0.0345x    frame=  391 fps=2.1 q=34.0 size=    5584kB time=00:00:06.26 bitrate=7305.8kbits/s speed=0.0344x    frame=  393 fps=2.1 q=34.0 size=    5584kB time=00:00:06.30 bitrate=7259.4kbits/s speed=0.0345x    frame=  397 fps=2.1 q=34.0 size=    5584kB time=00:00:06.38 bitrate=7168.4kbits/s speed=0.0344x    frame=  399 fps=2.1 q=34.0 size=    5584kB time=00:00:06.42 bitrate=7123.7kbits/s speed=0.0344x    frame=  401 fps=2.1 q=34.0 size=    5584kB time=00:00:06.46 bitrate=7079.6kbits/s speed=0.0344x    frame=  403 fps=2.1 q=34.0 size=    5584kB time=00:00:06.50 bitrate=7036.1kbits/s speed=0.0345x    frame=  405 fps=2.1 q=34.0 size=    5584kB time=00:00:06.54 bitrate=6993.0kbits/s speed=0.0345x    frame=  406 fps=2.1 q=34.0 size=    5584kB time=00:00:06.56 bitrate=6971.7kbits/s speed=0.0344x    frame=  407 fps=2.1 q=34.0 size=    5584kB time=00:00:06.58 bitrate=6950.5kbits/s speed=0.0344x    frame=  409 fps=2.1 q=34.0 size=    5584kB time=00:00:06.62 bitrate=6908.6kbits/s speed=0.0344x    frame=  410 fps=2.1 q=34.0 size=    5584kB time=00:00:06.64 bitrate=6887.7kbits/s speed=0.0343x    frame=  414 fps=2.1 q=34.0 size=    5584kB time=00:00:06.72 bitrate=6805.8kbits/s speed=0.0345x    frame=  416 fps=2.1 q=34.0 size=    5584kB time=00:00:06.76 bitrate=6765.5kbits/s speed=0.0343x    frame=  418 fps=2.1 q=34.0 size=    5584kB time=00:00:06.80 bitrate=6725.7kbits/s speed=0.0343x    frame=  419 fps=2.1 q=34.0 size=    5584kB time=00:00:06.82 bitrate=6706.0kbits/s speed=0.0343x    frame=  422 fps=2.1 q=34.0 size=    5584kB time=00:00:06.88 bitrate=6647.5kbits/s speed=0.0345x    frame=  423 fps=2.1 q=34.0 size=    5584kB time=00:00:06.90 bitrate=6628.2kbits/s speed=0.0345x    frame=  424 fps=2.1 q=34.0 size=    5584kB time=00:00:06.92 bitrate=6609.1kbits/s speed=0.0343x    frame=  425 fps=2.1 q=34.0 size=    5584kB time=00:00:06.94 bitrate=6590.0kbits/s speed=0.0343x    frame=  427 fps=2.1 q=34.0 size=    5584kB time=00:00:06.98 bitrate=6552.3kbits/s speed=0.0342x    frame=  428 fps=2.1 q=34.0 size=    5584kB time=00:00:07.00 bitrate=6533.6kbits/s speed=0.0342x    frame=  432 fps=2.1 q=34.0 size=    5584kB time=00:00:07.08 bitrate=6459.8kbits/s speed=0.0345x    frame=  433 fps=2.1 q=34.0 size=    5584kB time=00:00:07.10 bitrate=6441.6kbits/s speed=0.0344x    frame=  434 fps=2.1 q=34.0 size=    5584kB time=00:00:07.12 bitrate=6423.5kbits/s speed=0.0343x    frame=  436 fps=2.1 q=34.0 size=    5584kB time=00:00:07.16 bitrate=6387.6kbits/s speed=0.0342x    frame=  437 fps=2.1 q=34.0 size=    5584kB time=00:00:07.18 bitrate=6369.8kbits/s speed=0.0342x    frame=  441 fps=2.1 q=34.0 size=    5584kB time=00:00:07.26 bitrate=6299.6kbits/s speed=0.0344x    frame=  442 fps=2.1 q=34.0 size=    5584kB time=00:00:07.28 bitrate=6282.3kbits/s speed=0.0343x    frame=  443 fps=2.1 q=34.0 size=    5584kB time=00:00:07.30 bitrate=6265.1kbits/s speed=0.0341x    frame=  445 fps=2.1 q=34.0 size=    5584kB time=00:00:07.34 bitrate=6231.0kbits/s speed=0.0341x    frame=  447 fps=2.1 q=34.0 size=    5584kB time=00:00:07.38 bitrate=6197.2kbits/s speed=0.0342x    frame=  449 fps=2.1 q=34.0 size=    5584kB time=00:00:07.42 bitrate=6163.8kbits/s speed=0.0343x    frame=  451 fps=2.1 q=34.0 size=    5584kB time=00:00:07.46 bitrate=6130.7kbits/s speed=0.0342x    frame=  452 fps=2.1 q=34.0 size=    5584kB time=00:00:07.48 bitrate=6114.4kbits/s speed=0.0341x    frame=  454 fps=2.1 q=34.0 size=    5584kB time=00:00:07.52 bitrate=6081.8kbits/s speed=0.0342x    frame=  457 fps=2.1 q=34.0 size=    5584kB time=00:00:07.58 bitrate=6033.7kbits/s speed=0.0342x    frame=  458 fps=2.0 q=34.0 size=    5584kB time=00:00:07.60 bitrate=6017.8kbits/s speed=0.034x    frame=  462 fps=2.1 q=34.0 size=    5584kB time=00:00:07.68 bitrate=5955.2kbits/s speed=0.0343x    frame=  463 fps=2.0 q=34.0 size=    5584kB time=00:00:07.70 bitrate=5939.7kbits/s speed=0.0341x    frame=  464 fps=2.0 q=34.0 size=    5584kB time=00:00:07.72 bitrate=5924.3kbits/s speed=0.034x    frame=  469 fps=2.0 q=34.0 size=    5584kB time=00:00:07.82 bitrate=5848.6kbits/s speed=0.0341x    frame=  470 fps=2.0 q=34.0 size=    5584kB time=00:00:07.84 bitrate=5833.6kbits/s speed=0.034x    frame=  472 fps=2.0 q=34.0 size=    5584kB time=00:00:07.88 bitrate=5804.0kbits/s speed=0.034x    frame=  474 fps=2.0 q=34.0 size=    5584kB time=00:00:07.92 bitrate=5774.7kbits/s speed=0.0341x    frame=  476 fps=2.0 q=34.0 size=    5584kB time=00:00:07.96 bitrate=5745.7kbits/s speed=0.0341x    frame=  478 fps=2.0 q=34.0 size=    5584kB time=00:00:08.00 bitrate=5717.0kbits/s speed=0.034x    frame=  479 fps=2.0 q=34.0 size=    5584kB time=00:00:08.02 bitrate=5702.7kbits/s speed=0.034x    frame=  481 fps=2.0 q=34.0 size=    5584kB time=00:00:08.06 bitrate=5674.4kbits/s speed=0.034x    frame=  484 fps=2.0 q=34.0 size=    5584kB time=00:00:08.12 bitrate=5632.5kbits/s speed=0.0341x    frame=  485 fps=2.0 q=34.0 size=    5584kB time=00:00:08.14 bitrate=5618.7kbits/s speed=0.034x    frame=  487 fps=2.0 q=34.0 size=    5584kB time=00:00:08.18 bitrate=5591.2kbits/s speed=0.034x    frame=  488 fps=2.0 q=34.0 size=    5584kB time=00:00:08.20 bitrate=5577.6kbits/s speed=0.034x    frame=  490 fps=2.0 q=34.0 size=    5584kB time=00:00:08.24 bitrate=5550.5kbits/s speed=0.034x    frame=  491 fps=2.0 q=34.0 size=    5584kB time=00:00:08.26 bitrate=5537.0kbits/s speed=0.0339x    frame=  493 fps=2.0 q=34.0 size=    5584kB time=00:00:08.30 bitrate=5510.4kbits/s speed=0.034x    frame=  495 fps=2.0 q=34.0 size=    5584kB time=00:00:08.34 bitrate=5483.9kbits/s speed=0.034x    frame=  497 fps=2.0 q=34.0 size=    5584kB time=00:00:08.38 bitrate=5457.8kbits/s speed=0.034x    frame=  499 fps=2.0 q=34.0 size=    5584kB time=00:00:08.42 bitrate=5431.8kbits/s speed=0.034x    frame=  500 fps=2.0 q=34.0 size=    5584kB time=00:00:08.44 bitrate=5419.0kbits/s speed=0.034x    frame=  500 fps=1.7 q=-1.0 Lsize=   12135kB time=00:00:09.94 bitrate=9999.8kbits/s speed=0.0343x    
video:12130kB audio:0kB subtitle:0kB other streams:0kB global headers:0kB muxing overhead: 0.036525%
bench: utime=1115.660s
bench: maxrss=3699540kB
[libx264 @ 0x41d6120] frame I:3     Avg QP:30.06  size:557214
[libx264 @ 0x41d6120] frame P:63    Avg QP:33.51  size: 71322
[libx264 @ 0x41d6120] frame B:434   Avg QP:35.88  size: 14414
[libx264 @ 0x41d6120] consecutive B-frames:  0.8%  0.0%  0.0%  1.6%  4.0%  3.6% 11.2% 17.6% 61.2%
[libx264 @ 0x41d6120] mb I  I16..4: 17.9% 76.9%  5.2%
[libx264 @ 0x41d6120] mb P  I16..4:  0.0%  0.2%  0.0%  P16..4: 43.6%  4.8%  9.4%  0.0%  0.0%    skip:42.0%
[libx264 @ 0x41d6120] mb B  I16..4:  0.0%  0.0%  0.0%  B16..8: 46.8%  0.3%  0.0%  direct: 0.1%  skip:52.8%  L0:51.4% L1:48.5% BI: 0.1%
[libx264 @ 0x41d6120] final ratefactor: 26.22
[libx264 @ 0x41d6120] 8x8 transform intra:77.2% inter:67.2%
[libx264 @ 0x41d6120] direct mvs  spatial:99.1% temporal:0.9%
[libx264 @ 0x41d6120] coded y,uvDC,uvAC intra: 92.7% 74.9% 56.1% inter: 1.9% 1.4% 0.0%
[libx264 @ 0x41d6120] i16 v,h,dc,p: 13% 19% 32% 35%
[libx264 @ 0x41d6120] i8 v,h,dc,ddl,ddr,vr,hd,vl,hu:  5%  8%  1% 14% 19% 14% 19%  9% 12%
[libx264 @ 0x41d6120] i4 v,h,dc,ddl,ddr,vr,hd,vl,hu:  3%  4%  1% 14% 18% 15% 20% 11% 15%
[libx264 @ 0x41d6120] i8c dc,h,v,p: 41% 30% 16% 13%
[libx264 @ 0x41d6120] Weighted P-Frames: Y:3.2% UV:1.6%
[libx264 @ 0x41d6120] ref P L0: 55.7% 18.2% 13.8%  2.7%  2.6%  1.7%  1.8%  0.5%  0.5%  0.4%  0.4%  0.4%  0.4%  0.3%  0.4%  0.1%
[libx264 @ 0x41d6120] ref B L0: 75.9%  7.6%  6.5%  1.8%  1.8%  1.7%  1.6%  0.4%  0.5%  0.5%  0.4%  0.4%  0.4%  0.3%  0.1%
[libx264 @ 0x41d6120] ref B L1: 94.2%  5.8%
[libx264 @ 0x41d6120] kb/s:9936.62
